<?xml version="1.0" encoding="UTF-8" standalone="no"?>
<svg
   xmlns:dc="http://purl.org/dc/elements/1.1/"
   xmlns:cc="http://creativecommons.org/ns#"
   xmlns:rdf="http://www.w3.org/1999/02/22-rdf-syntax-ns#"
   xmlns:svg="http://www.w3.org/2000/svg"
   xmlns="http://www.w3.org/2000/svg"
   viewBox="0 0 1133.8586 1889.76"
   height="1889.76"
   width="1133.8586"
   xml:space="preserve"
   id="svg2"
   version="1.1"><metadata
     id="metadata8"><rdf:RDF><cc:Work
         rdf:about=""><dc:format>image/svg+xml</dc:format><dc:type
           rdf:resource="http://purl.org/dc/dcmitype/StillImage" /></cc:Work></rdf:RDF></metadata><defs
     id="defs6"><clipPath
       id="clipPath20"
       clipPathUnits="userSpaceOnUse"><path
         id="path18"
         d="M 0,1417.323 H 850.394 V 0 H 0 Z" /></clipPath></defs><g
     transform="matrix(1.3333333,0,0,-1.3333333,0,1889.76)"
     id="g10"><path
       id="path12"
       style="fill:#1d1d1b;fill-opacity:1;fill-rule:nonzero;stroke:#000000;stroke-width:1;stroke-linecap:butt;stroke-linejoin:miter;stroke-miterlimit:10;stroke-dasharray:none;stroke-opacity:1"
       d="M 701.609,530.433 H 117 v 676.174 h 584.609 z" /><g
       id="g14"><g
         clip-path="url(#clipPath20)"
         id="g16"><g
           transform="translate(472.6554,980.6817)"
           id="g22"><path
             id="path24"
             style="fill:#ffffff;fill-opacity:1;fill-rule:evenodd;stroke:none"
             d="m 0,0 -0.025,-108.026 c 0,-0.53 -0.768,-12.057 -9.596,-28.213 -17.09,-31.28 -44.946,-37.444 -50.21,-38.297 -14.235,-2.31 -30.878,2.792 -46.25,18.792 -18.666,19.431 -23.725,43.25 -24.404,48.931 V 0 Z m -3.722,-3.726 v -103.857 c 0,-4.53 -6.035,-30.2 -25.27,-47.317 -13.057,-11.62 -28.884,-17.286 -40.503,-16.401 -22.961,1.75 -39.174,24.088 -40.448,25.798 -8.156,10.955 -12.647,22.289 -15.342,30.932 -0.225,0.718 -1.21,4.793 -1.219,4.834 -0.005,0.026 -0.226,2.701 -0.256,2.898 V -3.726 Z m -130.887,-103.182 c 9.235,-50.919 38.453,-68.827 66.18,-73.192 v -131.298 c -0.008,-0.008 -0.041,-1.209 -0.041,-1.22 -0.195,-0.029 -0.24,0.889 -0.701,0.667 -0.085,-0.041 0.445,-0.604 0.406,-0.601 -0.068,0.006 0.106,-0.241 0.038,-0.227 -1.238,0.245 -2.733,1.094 -3.896,1.584 -8.546,3.603 -22.36,10.168 -39.272,20.715 -27.813,17.347 -46.468,36.084 -51.818,41.592 -55.726,57.365 -58.84,113.956 -59.126,141.98 z m -84.505,-3.727 h 81.305 c 7.703,-36.2 25.439,-63.046 65.659,-72.708 V -307.05 l -0.347,-0.224 c -63.625,29.312 -94.189,64.916 -108.255,84.062 -19.757,26.893 -29.194,53.007 -33.832,74.27 -2.167,9.937 -3.424,19.438 -4.064,28.313 -0.125,1.727 -0.539,8.692 -0.484,9.978 0.014,0.323 0.006,-0.207 -0.028,-0.017 z m 314.862,9.575 0.051,-0.057 H 4.701 v 104.8 l -65.204,0.419 0.032,90.382 C 24.649,93.199 88.541,76.514 107.462,71.448 Z m -3.49,3.669 H 8.426 V 7.028 l -65.2,0.756 0.028,82.96 0.011,0.013 c 51.036,-1.262 93.233,-5.622 160.27,-22.079 z m -300.97,-109.818 c -6.866,12.375 -10.674,22.12 -12.484,26.955 -6.213,16.598 -9.901,32.7 -11.136,46.146 -3.006,32.712 -2.018,30.062 -2.281,33.472 L -245.89,78.486 c 13.447,3.481 105.846,28.742 181.812,27.162 C 17.317,103.955 65.039,93.985 119.144,79.855 L 106.618,-98.387 c -0.474,-4.901 -1.367,-16.322 -1.477,-17.227 -4.033,-32.934 -4.435,-81.348 -66.824,-142.768 -48.893,-48.133 -87.915,-61.67 -104.488,-70.676 -17.629,9.36 -2.216,0.743 -33.386,17.564 -18.093,9.764 -31.774,19.414 -32.039,19.6 -18.301,12.83 -37.536,30.554 -55.048,52.104 -9.539,11.737 -16.728,22.955 -22.068,32.581 M 126.948,85.475 113.987,-98.964 c -4.059,-57.762 -11.522,-98.411 -54.129,-147.342 -52.195,-59.943 -108.868,-82.167 -126.042,-91.087 -38.98,20.397 -87.304,41.143 -131.454,99.683 -45.02,59.691 -42.878,113.166 -44.363,136.762 L -253.65,84.101 c 100.416,26.184 153.42,29.296 186.056,28.973 89.071,-0.882 144.651,-14.731 194.542,-27.599" /></g><g
           transform="translate(407.6321,929.3603)"
           id="g26"><path
             id="path28"
             style="fill:#ffffff;fill-opacity:1;fill-rule:evenodd;stroke:none"
             d="M 0,0 H -19.546 V 19.918 H 22.71 v -71.544 c 0,-8.18 -2.551,-18.908 -13.808,-25.228 -13.58,-7.626 -32.663,-3.174 -40.239,-1.808 v 20.936 c 13.93,-0.51 24.5,-5.972 29.304,-0.656 C -0.06,-56.199 0,-51.384 0,-46.943 Z m 2.657,-128.787 c 40.834,6.622 62.386,42.805 66.807,71.57 h 87.32 v 0.014 c 1.196,-0.087 1.236,-0.014 3.207,-0.014 -1.651,-49.746 -19.263,-92.984 -54.109,-131.242 C 62.43,-236.166 10.269,-258.565 3.1,-261.777 l -0.443,0.292 z m -3.963,184.051 -68.932,-0.125 0.037,-103.072 h -87.274 l -0.705,0.058 -10.989,169.259 c 34.246,9.092 91.723,23.062 167.851,24.43 l 0.012,-0.011 z" /></g></g></g></g></svg>